<svg xmlns="http://www.w3.org/2000/svg" viewBox="0 0 836.16 318.1"><defs><style>.cls-1{fill:#14223c;}.cls-2{fill:#faa31e;}.cls-3{fill:#13213b;}</style></defs><g id="Layer_2" data-name="Layer 2"><g id="Layer_1-2" data-name="Layer 1"><path class="cls-1" d="M358.46,195.34l12.13-14.53c8.4,6.93,17.19,11.33,27.86,11.33,8.39,0,13.46-3.33,13.46-8.8v-.27c0-5.19-3.2-7.86-18.8-11.86-18.79-4.8-30.92-10-30.92-28.52v-.27c0-16.93,13.6-28.12,32.66-28.12,13.59,0,25.19,4.26,34.65,11.86l-10.66,15.46c-8.26-5.73-16.39-9.19-24.26-9.19s-12,3.59-12,8.13v.26c0,6.13,4,8.13,20.12,12.26,18.93,4.94,29.59,11.73,29.59,28v.27c0,18.53-14.13,28.92-34.25,28.92A59.41,59.41,0,0,1,358.46,195.34Z"/><path class="cls-1" d="M450.16,115.63h20.53v36.92h37.85V115.63h20.53v93.3H508.54V171.48H470.69v37.45H450.16Z"/><path class="cls-1" d="M551.46,115.63h70.38v18.26h-50v18.93h44v18.26h-44v19.59H622.5v18.26h-71Z"/><path class="cls-1" d="M636.63,162.55v-.27c0-26.52,20.66-48.25,48.92-48.25,16.79,0,26.92,4.53,36.65,12.8l-12.93,15.59c-7.19-6-13.59-9.46-24.39-9.46-14.93,0-26.79,13.19-26.79,29v.27c0,17.06,11.73,29.59,28.26,29.59,7.46,0,14.13-1.87,19.32-5.6V172.94H685V155.22h40.51v40.52a60.54,60.54,0,0,1-39.85,14.79C656.63,210.53,636.63,190.14,636.63,162.55Z"/><path class="cls-1" d="M777.25,115h18.93l40,94H814.7L806.17,188H766.72l-8.53,20.92H737.27Zm21.59,54.92-12.39-30.26-12.4,30.26Z"/><circle class="cls-2" cx="199.81" cy="117.66" r="11.2"/><circle class="cls-2" cx="219.63" cy="138.97" r="11.2"/><circle class="cls-2" cx="100.57" cy="177.76" r="11.2"/><circle class="cls-2" cx="239.9" cy="158.61" r="9.78"/><circle class="cls-2" cx="239.9" cy="119.89" r="9.78"/><circle class="cls-2" cx="41.09" cy="159.42" r="6.72"/><circle class="cls-2" cx="60.65" cy="139.46" r="8.56"/><circle class="cls-2" cx="80.81" cy="159.42" r="10.69"/><circle class="cls-2" cx="80.81" cy="197.72" r="10.69"/><circle class="cls-2" cx="121.04" cy="198.24" r="10.69"/><circle class="cls-2" cx="60.65" cy="178.16" r="8.56"/><circle class="cls-2" cx="259.16" cy="178.16" r="8.56"/><circle class="cls-2" cx="259.16" cy="138.97" r="8.56"/><circle class="cls-2" cx="278.64" cy="159.42" r="6.05"/><circle class="cls-2" cx="278.64" cy="120.11" r="6.05"/><circle class="cls-2" cx="21.13" cy="137.83" r="3.67"/><circle class="cls-2" cx="21.13" cy="179.39" r="3.67"/><circle class="cls-2" cx="21.13" cy="158.61" r="3.67"/><circle class="cls-2" cx="300.89" cy="137.83" r="3.67"/><circle class="cls-2" cx="300.89" cy="179.39" r="3.67"/><circle class="cls-2" cx="300.89" cy="158.61" r="3.67"/><circle class="cls-2" cx="2.59" cy="159.42" r="2.59"/><circle class="cls-2" cx="41.09" cy="118.69" r="5.09"/><circle class="cls-2" cx="41.09" cy="197.72" r="5.09"/><circle class="cls-2" cx="278.64" cy="197.92" r="7.23"/><circle class="cls-2" cx="319.74" cy="159.42" r="2.65"/><circle class="cls-3" cx="160.5" cy="159.42" r="11.2"/><circle class="cls-3" cx="160.5" cy="117.66" r="11.2"/><circle class="cls-3" cx="120.4" cy="117.66" r="11.2"/><circle class="cls-3" cx="180.43" cy="138.97" r="11.2"/><circle class="cls-3" cx="219.63" cy="177.76" r="11.2"/><circle class="cls-3" cx="219.63" cy="218.6" r="11.2"/><circle class="cls-3" cx="100.57" cy="218.6" r="11.2"/><circle class="cls-3" cx="140.29" cy="138.97" r="11.2"/><circle class="cls-3" cx="100.57" cy="138.97" r="11.2"/><circle class="cls-3" cx="219.63" cy="99.13" r="12.22"/><circle class="cls-3" cx="179.6" cy="99.54" r="11.81"/><circle class="cls-3" cx="100.57" cy="99.54" r="11.81"/><circle class="cls-3" cx="179.6" cy="60.84" r="7.33"/><circle class="cls-3" cx="219.63" cy="60.84" r="7.33"/><circle class="cls-3" cx="259.16" cy="100.76" r="7.33"/><circle class="cls-3" cx="139.27" cy="60.84" r="7.33"/><circle class="cls-3" cx="100.57" cy="60.84" r="7.33"/><circle class="cls-3" cx="120.12" cy="159.42" r="9.78"/><circle class="cls-3" cx="198.89" cy="158.61" r="9.78"/><circle class="cls-3" cx="180.43" cy="178.16" r="9.78"/><circle class="cls-3" cx="140.09" cy="100.76" r="9.78"/><circle class="cls-3" cx="199.81" cy="80.9" r="9.78"/><circle class="cls-3" cx="239.9" cy="80.9" r="9.78"/><circle class="cls-3" cx="160.43" cy="80.39" r="9.78"/><circle class="cls-3" cx="121.04" cy="80.9" r="9.78"/><circle class="cls-3" cx="140.29" cy="179.39" r="9.78"/><circle class="cls-3" cx="60.65" cy="100.76" r="8.56"/><circle class="cls-3" cx="80.81" cy="81.21" r="10.69"/><circle class="cls-3" cx="80.81" cy="120.32" r="10.69"/><circle class="cls-3" cx="80.81" cy="237.54" r="10.69"/><circle class="cls-3" cx="120.12" cy="237.54" r="10.69"/><circle class="cls-3" cx="238.98" cy="237.54" r="10.69"/><circle class="cls-3" cx="199.81" cy="237.54" r="10.69"/><circle class="cls-3" cx="238.98" cy="198.24" r="10.69"/><circle class="cls-3" cx="199.81" cy="198.24" r="10.69"/><circle class="cls-3" cx="160.18" cy="198.24" r="10.69"/><circle class="cls-3" cx="60.65" cy="218.29" r="8.56"/><circle class="cls-3" cx="100.57" cy="256.79" r="8.56"/><circle class="cls-3" cx="140.29" cy="256.79" r="8.56"/><circle class="cls-3" cx="160.5" cy="237.54" r="8.56"/><circle class="cls-3" cx="180.01" cy="256.79" r="8.56"/><circle class="cls-3" cx="140.29" cy="217.49" r="8.56"/><circle class="cls-3" cx="180.43" cy="217.49" r="8.56"/><circle class="cls-3" cx="219.06" cy="256.79" r="8.56"/><circle class="cls-3" cx="259.16" cy="217.36" r="8.56"/><circle class="cls-3" cx="161.68" cy="314.44" r="3.67"/><circle class="cls-3" cx="140.29" cy="297.33" r="5.09"/><circle class="cls-3" cx="180.01" cy="297.33" r="5.09"/><circle class="cls-3" cx="120.12" cy="276.75" r="7.23"/><circle class="cls-3" cx="160.5" cy="276.75" r="7.23"/><circle class="cls-3" cx="199.81" cy="276.75" r="7.23"/><circle class="cls-3" cx="160.5" cy="40.06" r="6.52"/><circle class="cls-3" cx="180.82" cy="22" r="4.61"/><circle class="cls-3" cx="139.68" cy="22" r="4.61"/><circle class="cls-3" cx="160.43" cy="3.26" r="3.26"/><circle class="cls-3" cx="121.04" cy="40.06" r="6.52"/><circle class="cls-3" cx="198.89" cy="40.06" r="6.52"/></g></g></svg>